<?xml version="1.0" encoding="utf-8"?>
<!-- Generator: Adobe Illustrator 23.0.3, SVG Export Plug-In . SVG Version: 6.00 Build 0)  -->
<svg fill="#fff" version="1.1" id="Layer_1" xmlns="http://www.w3.org/2000/svg" xmlns:xlink="http://www.w3.org/1999/xlink" x="0px" y="0px"
	 viewBox="0 0 32 32" style="enable-background:new 0 0 32 32;" xml:space="preserve">
<g>
	<g>
		<path d="M25.75,27H11.4501953c-2.3432617,0-4.25-1.90625-4.25-4.25v-6.9667969c0-2.34375,1.9067383-4.25,4.25-4.25h8.7885742
			c0.5522461,0,1,0.4472656,1,1s-0.4477539,1-1,1h-8.7885742c-1.2407227,0-2.25,1.0097656-2.25,2.25V22.75
			c0,1.2402344,1.0092773,2.25,2.25,2.25H25.75c1.2407227,0,2.25-1.0097656,2.25-2.25v-6.9667969
			c0-0.8027344-0.4326172-1.5507813-1.1293945-1.9511719c-0.4790039-0.2753906-0.6435547-0.8867188-0.3681641-1.3662109
			c0.2753906-0.4775391,0.8862305-0.640625,1.3652344-0.3681641C29.1831055,12.8544922,30,14.2666016,30,15.7832031V22.75
			C30,25.09375,28.0932617,27,25.75,27z"/>
	</g>
	<g>
		<path d="M20.5498047,20.4667969h-8.7885742c-0.5522461,0-1-0.4472656-1-1s0.4477539-1,1-1h8.7885742
			c1.2407227,0,2.25-1.0097656,2.25-2.25V9.25c0-1.2402344-1.0092773-2.25-2.25-2.25H6.25C5.0092773,7,4,8.0097656,4,9.25v6.9667969
			c0,0.8027344,0.4326172,1.5507813,1.1293945,1.9511719c0.4790039,0.2753906,0.6435547,0.8867188,0.3681641,1.3662109
			c-0.2753906,0.4785156-0.8847656,0.6435547-1.3652344,0.3681641C2.8168945,19.1455078,2,17.7333984,2,16.2167969V9.25
			C2,6.90625,3.9067383,5,6.25,5h14.2998047c2.3432617,0,4.25,1.90625,4.25,4.25v6.9667969
			C24.7998047,18.5605469,22.8930664,20.4667969,20.5498047,20.4667969z"/>
	</g>
</g>
</svg>
