<svg fill="#fff" xmlns="http://www.w3.org/2000/svg"  viewBox="0 0 32 32" width="32px" height="32px"><path d="M 4 4 L 4 24 L 8 24 L 8 28 L 28 28 L 28 8 L 24 8 L 24 4 Z M 6 6 L 22 6 L 22 8 L 8 8 L 8 22 L 6 22 Z M 10 10 L 26 10 L 26 26 L 10 26 Z M 21 12 C 20.230469 12 19.457031 12.292969 18.875 12.875 L 17.875 13.875 C 16.957031 14.792969 16.785156 16.164063 17.3125 17.28125 L 17.28125 17.3125 C 16.871094 17.117188 16.441406 17 16 17 C 15.230469 17 14.457031 17.292969 13.875 17.875 L 12.875 18.875 C 11.710938 20.039063 11.710938 21.960938 12.875 23.125 C 14.039063 24.289063 15.960938 24.289063 17.125 23.125 L 18.125 22.125 C 19.042969 21.207031 19.214844 19.835938 18.6875 18.71875 L 18.71875 18.6875 C 19.835938 19.214844 21.207031 19.042969 22.125 18.125 L 23.15625 17.09375 C 24.289063 15.929688 24.277344 14.027344 23.125 12.875 C 22.542969 12.292969 21.769531 12 21 12 Z M 21 14 C 21.253906 14 21.523438 14.085938 21.71875 14.28125 C 22.109375 14.671875 22.109375 15.328125 21.71875 15.71875 L 20.71875 16.71875 C 20.597656 16.839844 20.4375 16.890625 20.28125 16.9375 L 19.0625 15.71875 C 19.109375 15.5625 19.160156 15.402344 19.28125 15.28125 L 20.28125 14.28125 C 20.476563 14.085938 20.746094 14 21 14 Z M 15.625 19.0625 C 15.65625 19.050781 15.6875 19.070313 15.71875 19.0625 L 16.9375 20.28125 C 16.890625 20.4375 16.839844 20.597656 16.71875 20.71875 L 15.71875 21.71875 C 15.328125 22.109375 14.671875 22.109375 14.28125 21.71875 C 13.90625 21.34375 13.910156 20.738281 14.25 20.34375 L 14.28125 20.28125 L 15.28125 19.28125 C 15.378906 19.183594 15.5 19.109375 15.625 19.0625 Z"/></svg>