<?xml version="1.0" encoding="utf-8"?>
<!-- Generator: Adobe Illustrator 23.0.3, SVG Export Plug-In . SVG Version: 6.00 Build 0)  -->
<svg fill="#fff" version="1.1" id="Layer_1" xmlns="http://www.w3.org/2000/svg" xmlns:xlink="http://www.w3.org/1999/xlink" x="0px" y="0px"
	 viewBox="0 0 32 32" style="enable-background:new 0 0 32 32;" xml:space="preserve">
<g>
	<g>
		<path d="M16,21.3632813c-0.2558594,0-0.5117188-0.0976563-0.7070313-0.2929688L7.65625,13.4345703
			c-0.390625-0.390625-0.390625-1.0234375,0-1.4140625s1.0234375-0.390625,1.4140625,0L16,18.9492188l6.9296875-6.9287109
			c0.390625-0.390625,1.0234375-0.390625,1.4140625,0s0.390625,1.0234375,0,1.4140625l-7.6367188,7.6357422
			C16.5117188,21.265625,16.2558594,21.3632813,16,21.3632813z"/>
	</g>
	<g>
		<path d="M16,21.3632813c-0.5527344,0-1-0.4472656-1-1V4c0-0.5527344,0.4472656-1,1-1s1,0.4472656,1,1v16.3632813
			C17,20.9160156,16.5527344,21.3632813,16,21.3632813z"/>
	</g>
	<g>
		<path d="M28,29H4c-0.5527344,0-1-0.4472656-1-1v-7.6367188c0-0.5527344,0.4472656-1,1-1s1,0.4472656,1,1V27h22v-6.6367188
			c0-0.5527344,0.4472656-1,1-1s1,0.4472656,1,1V28C29,28.5527344,28.5527344,29,28,29z"/>
	</g>
</g>
</svg>
