<?xml version="1.0" encoding="utf-8"?>
<!-- Generator: Adobe Illustrator 22.0.0, SVG Export Plug-In . SVG Version: 6.00 Build 0)  -->
<svg version="1.1" id="Layer_1" xmlns="http://www.w3.org/2000/svg" xmlns:xlink="http://www.w3.org/1999/xlink" x="0px" y="0px"
	 viewBox="0 0 889.9 739.1" style="enable-background:new 0 0 889.9 739.1;" xml:space="preserve">
<style type="text/css">
	.st0{fill:#FFFFFF;}
</style>
<g>
	<g>
		<g>
			<path class="st0" d="M113.5,682.9h5.9v55.7h-5.9V682.9z"/>
			<path class="st0" d="M200,682.9v55.7h-4.9l-35.8-45.2v45.2h-5.9v-55.7h4.9l35.9,45.2v-45.2H200z"/>
			<path class="st0" d="M279.7,682.9L255,738.6h-5.8l-24.7-55.7h6.4l21.3,48.4l21.5-48.4H279.7z"/>
			<path class="st0" d="M343,733.5v5.1h-39.4v-55.7h38.2v5.1h-32.3v19.8h28.8v5h-28.8v20.7H343z"/>
			<path class="st0" d="M367.5,731.8l2.3-4.5c4,3.9,11.1,6.8,18.4,6.8c10.4,0,15-4.4,15-9.9c0-15.3-34.3-5.9-34.3-26.5
				c0-8.2,6.4-15.3,20.5-15.3c6.3,0,12.8,1.8,17.3,4.9l-2,4.7c-4.8-3.1-10.3-4.6-15.3-4.6c-10.2,0-14.7,4.5-14.7,10.1
				c0,15.3,34.3,6,34.3,26.3c0,8.2-6.5,15.2-20.8,15.2C379.8,739.1,371.6,736.1,367.5,731.8z"/>
			<path class="st0" d="M447.7,688h-19.6v-5.1h45v5.1h-19.6v50.6h-5.9V688z"/>
			<path class="st0" d="M556.3,682.9v55.7h-5.7V694l-21.9,37.5H526l-21.9-37.2v44.3h-5.7v-55.7h4.9l24.2,41.3l24-41.3H556.3z"/>
			<path class="st0" d="M629.8,733.5v5.1h-39.4v-55.7h38.2v5.1h-32.3v19.8h28.8v5h-28.8v20.7H629.8z"/>
			<path class="st0" d="M706.1,682.9v55.7h-4.9l-35.8-45.2v45.2h-5.9v-55.7h4.9l35.9,45.2v-45.2H706.1z"/>
			<path class="st0" d="M751,688h-19.6v-5.1h45v5.1h-19.6v50.6H751V688z"/>
		</g>
		<g>
			<polygon class="st0" points="53.2,317.7 0,317.7 0,656 140.7,656 140.7,607.7 53.2,607.7 			"/>
			<path class="st0" d="M269.7,578.7c0,24.2-10.6,32.9-27.6,32.9s-27.6-8.7-27.6-32.9v-261h-53.2v257.6c0,54.1,27.1,85.1,79.3,85.1
				c52.2,0,79.3-30.9,79.3-85.1V317.7h-50.3V578.7z"/>
			<path class="st0" d="M431.2,313.8c-52.2,0-79.3,30.9-79.3,85.1v176c0,54.1,27.1,85.1,79.3,85.1c52.2,0,79.3-30.9,79.3-85.1v-45
				h-50.3v48.3c0,24.2-10.6,32.9-27.6,32.9c-16.9,0-27.6-8.7-27.6-32.9V395.5c0-24.2,10.6-33.4,27.6-33.4c16.9,0,27.6,9.2,27.6,33.4
				v36.3h50.3v-32.9C510.5,344.7,483.4,313.8,431.2,313.8z"/>
			<polygon class="st0" points="583,317.6 528.8,656 577.6,656 586.8,594.6 593.6,548.7 619.2,377.6 644.8,548.7 652.1,594.6 
				661.3,656 714.9,656 660.8,317.6 			"/>
			<path class="st0" d="M786,395.5c0-24.2,9.7-33.4,26.6-33.4s26.6,9.2,26.6,33.4v14v22.2h50.3v-22.2v-10.6
				c0-54.1-26.6-85.1-78.3-85.1c-51.7,0-78.3,30.9-78.3,85.1c0,96.7,103.9,109.7,103.9,179.3c0,24.2-10.6,32.9-27.6,32.9
				c-16.9,0-27.6-8.7-27.6-32.9V554v-24.2h-50.3V554v20.8c0,54.1,27.1,85.1,79.3,85.1c52.2,0,79.3-30.9,79.3-85.1
				C889.9,478.1,786,465.1,786,395.5z"/>
		</g>
	</g>
	<g>
		<path class="st0" d="M513.1,138.7L445,0l-68.4,138L250.3,54.3L328.4,278l56.7-112l60.7,39.5l60.5-39.9L561,278l78.6-222.1
			L513.1,138.7z M356.1,179.4l-27.1,54.3l-43.2-132.3l14,9.1l0.5,0.3l67.9,44.2L356.1,179.4z M445,183.3l-51.4-34.1L447,43.8
			l51,104.8L445,183.3z M559.9,233.7l-38.4-78.1l82.2-54.2L559.9,233.7z"/>
	</g>
</g>
</svg>
